<svg xmlns="http://www.w3.org/2000/svg" viewBox="0 0 512 512" width="512" height="512">
  <defs>
    <linearGradient id="bg" x1="0%" y1="0%" x2="100%" y2="100%">
      <stop offset="0%" stop-color="#1a5a9e"/>
      <stop offset="100%" stop-color="#3d8fd4"/>
    </linearGradient>
  </defs>
  <rect width="512" height="512" rx="108" fill="url(#bg)"/>
  <!-- Barcode-style IGA mark -->
  <g fill="white">
    <!-- I -->
    <rect x="100" y="128" width="22" height="192" rx="4"/>
    <rect x="100" y="128" width="64" height="22" rx="4"/>
    <rect x="100" y="298" width="64" height="22" rx="4"/>
    <!-- G -->
    <rect x="188" y="128" width="22" height="192" rx="4"/>
    <rect x="188" y="128" width="88" height="22" rx="4"/>
    <rect x="188" y="298" width="88" height="22" rx="4"/>
    <rect x="254" y="224" width="22" height="96" rx="4"/>
    <rect x="232" y="224" width="44" height="22" rx="4"/>
    <!-- A -->
    <rect x="302" y="128" width="22" height="192" rx="4"/>
    <rect x="378" y="128" width="22" height="192" rx="4"/>
    <rect x="302" y="128" width="98" height="22" rx="4"/>
    <rect x="302" y="224" width="98" height="22" rx="4"/>
  </g>
  <text x="256" y="392" font-family="system-ui, -apple-system, sans-serif" font-size="28" font-weight="600" text-anchor="middle" fill="white" opacity="0.5" letter-spacing="8">AUTOMAÇÃO</text>
</svg>
