<svg xmlns="http://www.w3.org/2000/svg" viewBox="0 0 192 192" width="192" height="192">
  <defs>
    <linearGradient id="bg" x1="0%" y1="0%" x2="100%" y2="100%">
      <stop offset="0%" stop-color="#1a5a9e"/>
      <stop offset="100%" stop-color="#3d8fd4"/>
    </linearGradient>
  </defs>
  <rect width="192" height="192" rx="40" fill="url(#bg)"/>
  <!-- Barcode-style IGA mark -->
  <g fill="white">
    <!-- I -->
    <rect x="40" y="48" width="8" height="72" rx="2"/>
    <rect x="40" y="48" width="24" height="8" rx="2"/>
    <rect x="40" y="112" width="24" height="8" rx="2"/>
    <!-- G -->
    <rect x="74" y="48" width="8" height="72" rx="2"/>
    <rect x="74" y="48" width="32" height="8" rx="2"/>
    <rect x="74" y="112" width="32" height="8" rx="2"/>
    <rect x="98" y="84" width="8" height="36" rx="2"/>
    <rect x="90" y="84" width="16" height="8" rx="2"/>
    <!-- A -->
    <rect x="116" y="48" width="8" height="72" rx="2"/>
    <rect x="144" y="48" width="8" height="72" rx="2"/>
    <rect x="116" y="48" width="36" height="8" rx="2"/>
    <rect x="116" y="84" width="36" height="8" rx="2"/>
  </g>
  <text x="96" y="148" font-family="system-ui, -apple-system, sans-serif" font-size="11" font-weight="600" text-anchor="middle" fill="white" opacity="0.6" letter-spacing="3">AUTOMAÇÃO</text>
</svg>
